<svg width="36" height="36" viewBox="0 0 36 36" fill="none" xmlns="http://www.w3.org/2000/svg">
<rect width="36" height="36" rx="18" fill="#2B479E"/>
<g clip-path="url(#clip0_28_36)">
<path d="M11 10H15L17 15L14.5 16.5C15.571 18.6715 17.3285 20.429 19.5 21.5L21 19L26 21V25C26 25.5304 25.7893 26.0391 25.4142 26.4142C25.0391 26.7893 24.5304 27 24 27C20.0993 26.763 16.4202 25.1065 13.6568 22.3432C10.8935 19.5798 9.23705 15.9007 9 12C9 11.4696 9.21071 10.9609 9.58579 10.5858C9.96086 10.2107 10.4696 10 11 10Z" stroke="white" stroke-width="1.5" stroke-linecap="round" stroke-linejoin="round"/>
<path d="M21 13C21.5304 13 22.0391 13.2107 22.4142 13.5858C22.7893 13.9609 23 14.4696 23 15" stroke="white" stroke-width="1.5" stroke-linecap="round" stroke-linejoin="round"/>
<path d="M21 9C22.5913 9 24.1174 9.63214 25.2426 10.7574C26.3679 11.8826 27 13.4087 27 15" stroke="white" stroke-width="1.5" stroke-linecap="round" stroke-linejoin="round"/>
</g>
<defs>
<clipPath id="clip0_28_36">
<rect width="24" height="24" fill="white" transform="translate(6 6)"/>
</clipPath>
</defs>
</svg>
